<?xml version="1.0" encoding="UTF-8"?>
<svg width="641px" height="156px" viewBox="0 0 641 156" version="1.1" xmlns="http://www.w3.org/2000/svg" xmlns:xlink="http://www.w3.org/1999/xlink">
    <!-- Generator: Sketch 49 (51002) - http://www.bohemiancoding.com/sketch -->
    <title>logo_faucet</title>
    <desc>Created with Sketch.</desc>
    <defs></defs>
    <g id="Page-1" stroke="none" stroke-width="1" fill="none" fill-rule="evenodd">
        <rect id="Rectangle" fill="#37375F" x="-26" y="-49" width="722" height="254"></rect>
        <g id="logo_faucet" style="mix-blend-mode: soft-light;" fill-rule="nonzero">
            <polygon id="Shape" fill="#FFFFFF" points="168.38 70.67 219.63 70.67 219.63 62.27 158.7 62.27 158.7 125.77 168.38 125.77 168.38 97.58 217.07 97.58 217.07 89.17 168.38 89.17"></polygon>
            <path d="M267.19,62.27 L255,62.27 L218.77,125.77 L230,125.77 L238,111.67 L284.94,111.67 L292.94,125.77 L303.3,125.77 L267.48,62.77 L267.19,62.27 Z M280.19,103.27 L242.79,103.27 L261.52,70.37 L280.19,103.27 Z" id="Shape" fill="#FFFFFF"></path>
            <path d="M380.75,94 C380.75,97.78 380.75,101.11 380.67,103.89 C380.657441,106.171096 380.443274,108.446618 380.03,110.69 C379.77745,112.183134 379.215419,113.606946 378.38,114.87 C377.598196,115.914999 376.532581,116.713342 375.31,117.17 C373.546241,117.821908 371.696718,118.2127 369.82,118.33 C367.5,118.52 364.64,118.62 361.29,118.62 L343.29,118.62 C339.92,118.62 337.05,118.52 334.75,118.33 C332.870342,118.210426 331.017846,117.819718 329.25,117.17 C328.029852,116.718933 326.966851,115.92342 326.19,114.88 C325.366312,113.614901 324.817783,112.19077 324.58,110.7 C324.172048,108.449149 323.95793,106.167451 323.94,103.88 C323.87,101.15 323.83,97.83 323.83,94 L323.83,62.27 L314.15,62.27 L314.15,94 C314.15,97.62 314.15,101 314.27,104 C314.319504,106.769316 314.627508,109.527959 315.19,112.24 C315.670587,114.55439 316.557645,116.765262 317.81,118.77 C319.118457,120.748618 320.898575,122.370656 322.99,123.49 C325.57673,124.83867 328.367068,125.754144 331.25,126.2 C335.217574,126.835101 339.232221,127.129508 343.25,127.08 L361.25,127.08 C365.267773,127.129313 369.282403,126.834906 373.25,126.2 C376.132932,125.754144 378.92327,124.83867 381.51,123.49 C383.595593,122.370029 385.369069,120.747779 386.67,118.77 C387.909958,116.762245 388.786678,114.551827 389.26,112.24 C389.824156,109.530921 390.142118,106.776365 390.21,104.01 C390.3,101.01 390.35,97.66 390.35,94.01 L390.35,62.27 L380.62,62.27 L380.75,94 Z" id="Shape" fill="#FFFFFF"></path>
            <path d="M477.58,70.44 C476.702746,68.8021778 475.509794,67.3543212 474.07,66.18 C472.435183,64.8692375 470.584052,63.8539919 468.6,63.18 C466.130566,62.3685729 463.583591,61.8156111 461,61.53 C457.590541,61.1457316 454.160903,60.9687396 450.73,61 L432.73,61 C428.695852,60.9451125 424.664424,61.2361782 420.68,61.87 C417.796481,62.3189981 415.006116,63.2378589 412.42,64.59 C410.329252,65.7058455 408.549085,67.3244917 407.24,69.3 C405.98844,71.3087481 405.101485,73.5227512 404.62,75.84 C404.056856,78.5485613 403.748842,81.3039469 403.7,84.07 C403.62,87.07 403.58,90.41 403.58,94.07 C403.58,97.73 403.58,101.07 403.7,104.07 C403.748335,106.839392 404.056351,109.598143 404.62,112.31 C405.100587,114.62439 405.987645,116.835262 407.24,118.84 C408.551325,120.81616 410.330757,122.437573 412.42,123.56 C415.00673,124.90867 417.797068,125.824144 420.68,126.27 C424.664068,126.907756 428.695548,127.202171 432.73,127.15 L450.73,127.15 C454.16335,127.141881 457.593023,126.924813 461,126.5 C463.609277,126.207334 466.17821,125.627145 468.66,124.77 C470.657784,124.078282 472.514238,123.031486 474.14,121.68 C475.591902,120.429316 476.781492,118.903241 477.64,117.19 C478.538905,115.355369 479.146201,113.391777 479.44,111.37 C479.784587,109.019339 479.948401,106.645713 479.93,104.27 L479.93,103.27 L470.24,103.27 L470.24,104.27 C470.253421,106.09697 470.163276,107.923232 469.97,109.74 C469.833632,111.044037 469.496308,112.319122 468.97,113.52 C468.533845,114.474944 467.883727,115.316676 467.07,115.98 C466.074194,116.71968 464.942768,117.256513 463.74,117.56 C461.995525,118.015772 460.210095,118.297153 458.41,118.4 C456.28,118.56 453.71,118.64 450.75,118.64 L432.75,118.64 C429.37,118.64 426.5,118.54 424.2,118.35 C422.323589,118.230446 420.47439,117.839723 418.71,117.19 C417.489016,116.74047 416.425612,115.944655 415.65,114.9 C414.822784,113.63572 414.270829,112.211539 414.03,110.72 C413.626802,108.468499 413.412722,106.187206 413.39,103.9 C413.32,101.16 413.29,97.83 413.29,94.02 C413.29,90.21 413.29,86.85 413.37,84.13 C413.382693,81.8431885 413.59011,79.5616117 413.99,77.31 C414.231125,75.8200423 414.786781,74.3985157 415.62,73.14 C416.407994,72.0927438 417.480661,71.2943187 418.71,70.84 C420.475016,70.1940957 422.324142,69.8067561 424.2,69.69 C426.5,69.49 429.37,69.39 432.75,69.39 L450.75,69.39 C453.944713,69.361357 457.138821,69.4948621 460.32,69.79 C462.386121,69.9252939 464.398658,70.5051775 466.22,71.49 C467.629076,72.344654 468.691431,73.6690572 469.22,75.23 C469.963474,77.5755898 470.301651,80.0307567 470.22,82.49 L470.22,83.49 L479.91,83.49 L479.91,82.49 C479.927605,80.2902519 479.763716,78.0928003 479.42,75.92 C479.108485,74.0054938 478.487004,72.1545612 477.58,70.44 Z" id="Shape" fill="#FFFFFF"></path>
            <polygon id="Shape" fill="#FFFFFF" points="495.61 125.77 559.11 125.77 559.11 117.36 505.3 117.36 505.3 97.58 556.55 97.58 556.55 89.17 505.3 89.17 505.3 70.67 559.11 70.67 559.11 62.27 495.61 62.27"></polygon>
            <polygon id="Shape" fill="#FFFFFF" points="569.72 62.27 569.72 70.67 600.47 70.67 600.47 125.77 610.16 125.77 610.16 70.67 640.91 70.67 640.91 62.27"></polygon>
            <polygon id="Shape" fill="#B7B7B7" opacity="0.75" points="65.03 97.19 104.79 84.34 114.34 52.66 66.9 66.75"></polygon>
            <polygon id="Shape" fill="#FFFFFF" points="65.03 97.19 66.9 66.75 0.42 56.71 10.89 88.89"></polygon>
            <polygon id="Shape" fill="#FFFFFF" points="10.89 93.63 10.89 138.62 64.86 146.78 64.86 101.75"></polygon>
            <path d="M74.87,125.09 C72.41,124.67 70.49,121.19 70.49,116.97 C70.49,112.46 72.68,108.8 75.38,108.8 C75.4865982,108.794596 75.5934018,108.794596 75.7,108.8 L75.84,108.8 L75.91,108.8 L82.83,109.87 C83.57,106.93 85.31,104.87 87.34,104.87 C87.45,104.87 87.55,104.87 87.66,104.87 L87.8,104.87 L87.86,104.87 L95.02,105.97 C95.76,102.97 97.5,100.97 99.53,100.97 L99.86,100.97 L100,100.97 L100.06,100.97 L104.63,101.67 L104.63,88.89 L64.86,101.75 L64.86,146.75 L85.71,140.04 L85.71,126.75 L74.87,125.09 Z" id="Shape" fill="#B7B7B7" opacity="0.75"></path>
            <polygon id="Shape" fill="#37375F" opacity="0.75" points="94.87 128.15 94.87 129.85 94.87 137.12 97.66 136.22 97.66 128.58"></polygon>
            <path d="M114.44,124.25 C114.045338,124.249235 113.651154,124.22251 113.26,124.17 C112.959995,124.413283 112.622198,124.605827 112.26,124.74 C112.105584,124.799713 111.94435,124.840021 111.78,124.86 C111.61366,124.874752 111.44634,124.874752 111.28,124.86 C111.143527,124.870277 111.006473,124.870277 110.87,124.86 L109.94,124.72 L109.94,143.5 C109.861093,145.189147 110.717321,146.784873 112.168428,147.653051 C113.619535,148.521229 115.430465,148.521229 116.881572,147.653051 C118.332679,146.784873 119.188907,145.189147 119.11,143.5 L119.11,122.07 C119,123.28 117,124.25 114.44,124.25 Z" id="Shape" fill="#FFFFFF"></path>
            <path d="M126.94,107.17 C126.960382,107.19778 126.977181,107.228018 126.99,107.26 C126.977181,107.228018 126.960382,107.19778 126.94,107.17 Z" id="Shape" fill="#37375F"></path>
            <path d="M127.25,107.74 L127.31,107.88 L127.25,107.74 Z" id="Shape" fill="#37375F"></path>
            <path d="M127.51,108.36 C127.51,108.42 127.56,108.49 127.59,108.56 C127.62,108.63 127.54,108.42 127.51,108.36 Z" id="Shape" fill="#37375F"></path>
            <path d="M127.75,109 C127.75,109.08 127.8,109.17 127.83,109.26 C127.8,109.19 127.78,109.1 127.75,109 Z" id="Shape" fill="#37375F"></path>
            <path d="M123.94,121 C125.58,120.72 126.94,119.08 127.73,116.77 C127,119.06 125.58,120.7 123.94,121 Z" id="Shape" fill="#37375F"></path>
            <path d="M126.61,106.65 C126.61,106.65 126.61,106.65 126.61,106.65 C126.61,106.65 126.63,106.67 126.61,106.65 Z" id="Shape" fill="#37375F"></path>
            <path d="M128.23,111.23 C128.23,111.39 128.23,111.56 128.23,111.73 C128.26,111.56 128.25,111.39 128.23,111.23 Z" id="Shape" fill="#37375F"></path>
            <path d="M128.3,112 C128.3,112.27 128.3,112.54 128.3,112.82 C128.32,112.57 128.31,112.3 128.3,112 Z" id="Shape" fill="#37375F"></path>
            <path d="M128,109.72 C128,109.83 128.05,109.94 128.07,110.05 C128,109.94 128,109.83 128,109.72 Z" id="Shape" fill="#37375F"></path>
            <path d="M128.11,110.46 L128.17,110.86 L128.11,110.46 Z" id="Shape" fill="#37375F"></path>
            <path d="M128.1,115.28 C128.009767,115.777742 127.886155,116.268851 127.73,116.75 C127.886155,116.268851 128.009767,115.777742 128.1,115.28 Z" id="Shape" fill="#37375F"></path>
            <path d="M123.63,104.7 C124.482214,104.779033 125.277432,105.162441 125.87,105.78 C125.277432,105.162441 124.482214,104.779033 123.63,104.7 Z" id="Shape" fill="#37375F" opacity="0.75"></path>
            <path d="M127.83,109.28 L127.95,109.72 L127.83,109.28 Z" id="Shape" fill="#37375F" opacity="0.75"></path>
            <path d="M128,110.05 L128.09,110.46 L128,110.05 Z" id="Shape" fill="#37375F" opacity="0.75"></path>
            <path d="M127,107.26 C127.09,107.42 127.18,107.57 127.26,107.74 C127.17,107.57 127.08,107.42 127,107.26 Z" id="Shape" fill="#37375F" opacity="0.75"></path>
            <path d="M128.17,110.86 L128.23,111.23 L128.17,110.86 Z" id="Shape" fill="#37375F" opacity="0.75"></path>
            <path d="M126.27,106.21 C126.39,106.35 126.5,106.5 126.61,106.65 C126.5,106.5 126.39,106.35 126.27,106.21 Z" id="Shape" fill="#37375F" opacity="0.75"></path>
            <path d="M123,121 C123.149587,121.015741 123.300413,121.015741 123.45,121 C123.300413,121.015741 123.149587,121.015741 123,121 Z" id="Shape" fill="#37375F" opacity="0.75"></path>
            <path d="M128.27,111.73 L128.27,112.03 L128.27,111.73 Z" id="Shape" fill="#37375F" opacity="0.75"></path>
            <path d="M127.59,108.56 C127.59,108.71 127.7,108.86 127.75,109.02 C127.7,108.86 127.64,108.71 127.59,108.56 Z" id="Shape" fill="#37375F" opacity="0.75"></path>
            <path d="M126.65,106.7 C126.75,106.85 126.85,107.01 126.94,107.17 C126.85,107 126.75,106.85 126.65,106.7 Z" id="Shape" fill="#37375F" opacity="0.75"></path>
            <path d="M127.31,107.88 C127.38,108.04 127.45,108.19 127.51,108.36 C127.45,108.19 127.38,108 127.31,107.88 Z" id="Shape" fill="#37375F" opacity="0.75"></path>
            <path d="M125.87,105.78 C126.007401,105.90943 126.137597,106.046303 126.26,106.19 C126.137597,106.046303 126.007401,105.90943 125.87,105.78 Z" id="Shape" fill="#37375F" opacity="0.75"></path>
            <path d="M128.3,112 L128.3,111.7 C128.3,111.53 128.3,111.36 128.3,111.2 L128.24,110.83 L128.18,110.43 L128.09,110.02 C128.09,109.91 128.09,109.8 128.02,109.69 L127.9,109.25 C127.9,109.16 127.85,109.07 127.82,108.99 C127.79,108.91 127.71,108.68 127.66,108.53 C127.61,108.38 127.61,108.39 127.58,108.33 C127.55,108.27 127.45,108.01 127.38,107.85 L127.32,107.71 C127.24,107.54 127.15,107.39 127.06,107.23 C127.047181,107.198018 127.030382,107.16778 127.01,107.14 C126.92,106.98 126.82,106.82 126.72,106.67 C126.72,106.67 126.5,106.37 126.38,106.23 C126.257597,106.086303 126.127401,105.94943 125.99,105.82 C125.397432,105.202441 124.602214,104.819033 123.75,104.74 L123.56,104.74 C120.86,104.74 118.67,108.4 118.67,112.91 C118.67,117.17 120.62,120.66 123.11,121.04 C123.259587,121.055741 123.410413,121.055741 123.56,121.04 C123.726336,121.054857 123.893664,121.054857 124.06,121.04 C125.7,120.76 127.06,119.12 127.85,116.81 C128.006155,116.328851 128.129767,115.837742 128.22,115.34 C128.371153,114.538938 128.444826,113.725184 128.44,112.91 C128.32,112.57 128.31,112.3 128.3,112 Z" id="Shape" fill="#B7B7B7" opacity="0.75"></path>
            <path d="M74.15,47.69 C79.1734211,47.69 83.7022038,44.6639641 85.6245838,40.0229282 C87.5469638,35.3818923 86.4843613,30.0398289 82.9322662,26.4877338 C79.3801711,22.9356387 74.0381077,21.8730362 69.3970718,23.7954162 C64.7560359,25.7177962 61.73,30.2465789 61.73,35.27 C61.73,42.1293766 67.2906234,47.69 74.15,47.69 Z" id="Shape" fill="#FFFFFF"></path>
            <polygon id="Shape" fill="#FFFFFF" points="55.72 34.66 35.83 23.58 24.75 43.47 35.63 49.53 46.52 51.17"></polygon>
            <polygon id="Shape" fill="#FFFFFF" points="65.31 0.05 36.58 9.35 59.17 27.1"></polygon>
            <polygon id="Shape" fill="#E3E3E3" opacity="0.5" points="114.34 52.66 106.81 42.21 65.6 54.03 66.9 66.75"></polygon>
            <polygon id="Shape" fill="#A1A1A1" opacity="0.75" points="65.6 54.03 46.52 51.17 35.63 49.53 8.52 45.45 0.42 56.71 66.9 66.75"></polygon>
            <path d="M102.250018,128.14 C101.910017,128.14 101.580015,128.14 101.250014,128.14 L101.170014,128.2 C101.029468,128.302621 100.882501,128.396146 100.730012,128.48 C100.278178,128.712485 99.7781261,128.835785 99.2700064,128.84 L99.180006,128.84 L98.8200046,128.84 L97.65,128.66 L97.65,147.47 C97.7644054,149.91904 99.7832973,151.845816 102.235018,151.845816 C104.686739,151.845816 106.705631,149.91904 106.820036,147.47 L106.820073,126 C106.830036,127.16 104.780028,128.14 102.250018,128.14 Z" id="Shape" fill="#FFFFFF"></path>
            <path d="M110.79,124.87 C110.926473,124.880277 111.063527,124.880277 111.2,124.87 C111.063527,124.880277 110.926473,124.880277 110.79,124.87 Z" id="Shape" fill="#37375F"></path>
            <path d="M110.79,124.87 C110.926473,124.880277 111.063527,124.880277 111.2,124.87 C111.063527,124.880277 110.926473,124.880277 110.79,124.87 Z" id="Shape" fill="#37375F" opacity="0.75"></path>
            <path d="M111.24,124.91 C111.40634,124.924752 111.57366,124.924752 111.74,124.91 C111.57366,124.924752 111.40634,124.924752 111.24,124.91 Z" id="Shape" fill="#37375F"></path>
            <path d="M111.24,124.91 C111.40634,124.924752 111.57366,124.924752 111.74,124.91 C111.57366,124.924752 111.40634,124.924752 111.24,124.91 Z" id="Shape" fill="#37375F" opacity="0.75"></path>
            <path d="M111.2,124.9 C111.36634,124.914752 111.53366,124.914752 111.7,124.9 C111.86435,124.880021 112.025584,124.839713 112.18,124.78 C113.644577,124.125315 114.761054,122.877916 115.25,121.35 C115.34,121.13 115.42,120.9 115.5,120.67 C115.653964,120.192342 115.774259,119.70448 115.86,119.21 C116.010725,118.408879 116.084395,117.595165 116.08,116.78 C116.08,112.27 113.9,108.61 111.2,108.61 C108.5,108.61 106.31,112.27 106.31,116.78 C106.31,121.03 108.31,124.53 110.75,124.91 C110.90002,124.919059 111.050531,124.915714 111.2,124.9 Z" id="Shape" fill="#B7B7B7" opacity="0.75"></path>
            <path d="M90.29,132 C87.76,132 85.71,131 85.71,129.82 L85.71,126.72 L85.71,151.25 C85.71,153.779464 87.7605358,155.83 90.29,155.83 C92.8194642,155.83 94.87,153.779464 94.87,151.25 L94.87,129.85 C94.87,131.05 92.82,132 90.29,132 Z" id="Shape" fill="#FFFFFF"></path>
            <polygon id="Shape" fill="#37375F" points="101.18 128.15 101.26 128.09 101.26 128.09"></polygon>
            <polygon id="Shape" fill="#37375F" opacity="0.75" points="101.18 128.15 101.26 128.09 101.26 128.09"></polygon>
            <polygon id="Shape" fill="#37375F" points="98.83 128.76 98.83 128.76 99.19 128.76"></polygon>
            <polygon id="Shape" fill="#37375F" opacity="0.75" points="98.83 128.76 98.83 128.76 99.19 128.76"></polygon>
            <path d="M99.28,128.79 C99.7881177,128.785785 100.288168,128.662485 100.74,128.43 C100.288168,128.662485 99.7881177,128.785785 99.28,128.79 Z" id="Shape" fill="#37375F"></path>
            <path d="M99.28,128.79 C99.7881177,128.785785 100.288168,128.662485 100.74,128.43 C100.288168,128.662485 99.7881177,128.785785 99.28,128.79 Z" id="Shape" fill="#37375F" opacity="0.75"></path>
            <path d="M99.19,128.79 L99.28,128.79 C99.7881177,128.785785 100.288168,128.662485 100.74,128.43 C100.892488,128.346146 101.039455,128.252621 101.18,128.15 L101.26,128.09 C102.97,126.82 104.17,123.95 104.17,120.62 C104.17,116.11 101.98,112.45 99.28,112.45 C96.58,112.45 94.4,116.11 94.4,120.62 C94.4,124.88 96.35,128.37 98.83,128.76 L99.19,128.79 Z" id="Shape" fill="#B7B7B7" opacity="0.75"></path>
        </g>
    </g>
</svg>